<?xml version="1.0" encoding="UTF-8"?>
<!DOCTYPE svg PUBLIC "-//W3C//DTD SVG 1.1//EN" "http://www.w3.org/Graphics/SVG/1.1/DTD/svg11.dtd">
<!-- Creator: CorelDRAW (Versión de evaluación) -->
<svg xmlns="http://www.w3.org/2000/svg" xml:space="preserve" width="43.3493mm" height="43.3493mm" version="1.1" style="shape-rendering:geometricPrecision; text-rendering:geometricPrecision; image-rendering:optimizeQuality; fill-rule:evenodd; clip-rule:evenodd"
viewBox="0 0 4334.92 4334.92"
 xmlns:xlink="http://www.w3.org/1999/xlink"
 xmlns:xodm="http://www.corel.com/coreldraw/odm/2003">
 <defs>
  <style type="text/css">
   <![CDATA[
    .fil1 {fill:none}
    .fil0 {fill:#00B0F0;fill-rule:nonzero}
   ]]>
  </style>
 </defs>
 <g id="Capa_x0020_1">
  <metadata id="CorelCorpID_0Corel-Layer"/>
  <path class="fil0" d="M2425.3 1100.16c33.96,-40.62 103.68,-70.64 201.91,-70.64 92.16,0 202.21,13.95 305.9,43.66l87.91 -470.51c-179.77,-63.06 -363.8,-80.04 -555.09,-80.04 -191.6,0 -341.37,28.8 -463.24,99.44 -121.87,66.09 -202.21,142.18 -247.99,253.45 -47.3,99.43 -69.73,265.27 -69.73,473.84l0 184.94 -371.08 0 0 536.9 371.08 0 0 1688.64c155.22,35.47 317.72,52.45 485.67,52.45 63.06,0 127.33,0 190.39,-11.82l0 -1729.27 492.04 0 0 -536.9 -492.04 0 0 -173.41c0,-132.49 18.19,-213.74 64.27,-260.73z"/>
  <rect class="fil1" x="-0" y="-0" width="4334.92" height="4334.92"/>
 </g>
</svg>
