<svg xmlns="http://www.w3.org/2000/svg" viewBox="0 0 357 355" style="enable-background:new 0 0 357 355" xml:space="preserve">
  <linearGradient id="a" gradientUnits="userSpaceOnUse" x1="72.042" y1="177.5" x2="282.958" y2="177.5">
    <stop offset="0" style="stop-color: purple"/>
    <stop offset="1" style="stop-color: green"/>
  </linearGradient>
  <path style="fill:url(#a)" d="M279.92 164.47c-13.76-13.84-27.54-27.67-41.3-41.51-14.47-14.56-28.9-29.15-43.39-43.69-9.56-9.6-25.03-9.62-34.63-.1-2.97 2.95-5.93 5.91-8.89 8.88l-18 18.09c-5.29 5.17-10.63 10.29-15.87 15.51a9177.144 9177.144 0 0 0-32.68 32.76c-4.51 4.54-9.49 8.66-13.11 14.03v4.94c.11.07.27.11.33.21 4.11 6.78 9.28 7.46 14.95 1.97.28-.27.58-.53 1.19-1.08v2.51c0 23.99.02 47.99-.01 71.98-.01 12.95 5.61 22.76 16.48 29.59 2.84 1.79 6.04 2.84 9.33 3.6.75.17 1.65.04 2.22.79h40.37c5.26-2.21 6.6-4.25 6.6-10.03 0-17.77-.03-35.53.01-53.3.02-8.08 6.38-14.46 14.3-14.51 8.02-.04 14.48 6.34 14.5 14.5.04 17.7.11 35.4-.04 53.09-.04 5.1 1.72 8.59 6.65 10.24h38.72c.29-.55.83-.37 1.28-.44 15.47-2.42 27.51-16.43 27.54-32.05.01-4.89-3.4-8.59-8.01-8.68-4.75-.1-8.29 3.44-8.45 8.45-.3 9.27-7.44 16.22-16.75 16.25-7.48.03-14.96-.04-22.44.04-1.62.02-2.05-.42-2.04-2.04.06-14.62.03-29.23.04-43.85 0-1.99-.12-3.96-.39-5.94-1.88-13.9-14.73-25.54-28.8-26.03-18.3-.64-32.59 13.11-32.61 31.41-.01 13.72.01 27.45-.02 41.17 0 1.69.76 3.86-.38 4.92-.87.81-2.99.26-4.56.32-.14.01-.27.04-.41.06-6.86-.02-13.72.03-20.58-.09-8.72-.14-16.01-7.32-16.03-16.04-.08-30.39-.04-60.79-.04-91.18 0-.68-.02-1.32.54-1.89 4.84-4.94 9.69-9.88 14.59-14.75 5-4.97 10.04-9.89 15-14.91.61-.55 1.24-1.07 1.82-1.64 11.56-11.54 23.12-23.09 34.68-34.63 3.86-3.85 8.69-3.82 12.5.04 5.88 5.96 11.75 11.93 17.66 17.87 15.55 15.61 31.1 31.22 46.69 46.79 1.1 1.1 1.59 2.18 1.59 3.76-.06 16.13-.03 32.26-.07 48.39-.01 2.79.85 5.15 3.02 6.9 2.63 2.11 5.61 2.54 8.68 1.1 3.15-1.48 4.74-4.1 4.75-7.57.04-10.57.01-21.14.01-31.71v-2.14c.23-.13.46-.26.7-.4.67.86 1.22 1.85 2.02 2.56 4.08 3.64 10.28 2.53 12.82-2.24 1.79-3.38 1.05-7.13-2.08-10.28z" />
  <path style="fill:url(#a)" d="M171.36 142.76c0-3.58-.09-6.69.02-9.79.15-4.07 2.72-6.74 6.22-6.7 3.5.04 5.91 2.73 6.01 6.85.07 2.98.01 5.96.01 9.65 3.31 0 6.38-.07 9.44.02 4.51.13 7.07 2.44 7.03 6.22-.03 3.83-2.47 5.9-7.16 6.03-2.72.08-5.45.09-8.17.15-.24.01-.47.23-1.14.58 0 2.87.07 5.97-.02 9.07-.11 4.17-2.48 6.71-6.1 6.7-3.57-.01-6-2.6-6.14-6.74-.11-3.1-.02-6.2-.02-9.77-3.54 0-6.65.08-9.75-.02-4.15-.14-6.73-2.56-6.7-6.12.03-3.57 2.59-5.9 6.79-6.11 1.5-.08 3-.02 4.5-.02 1.51-.01 3 0 5.18 0z"/>
</svg>