<svg
  version="1.1"
  id="Capa_1"
  xmlns="http://www.w3.org/2000/svg"
  xmlns:xlink="http://www.w3.org/1999/xlink"
  x="0px"
  y="0px"
  viewBox="0 0 357 355"
  style="enable-background:new 0 0 357 355;"
  xml:space="preserve"
>

  <style type="text/css">
    .st0{fill:url(#SVGID_1_);}
    .st1{fill:#ffffff;}
  </style>

  <g>
    <linearGradient id="SVGID_1_" gradientUnits="userSpaceOnUse" x1="13.0324" y1="177.5" x2="343.9676" y2="177.5">
      <stop  offset="0" style="stop-color:#02B3F8"/>
      <stop  offset="1" style="stop-color:#02D9F8"/>
    </linearGradient>

    <path class="st0" d="M299.2,342.97H57.8c-24.62,0-44.77-20.14-44.77-44.77V56.8c0-24.62,20.14-44.77,44.77-44.77h241.4
      c24.62,0,44.77,20.14,44.77,44.77v241.4C343.97,322.82,323.82,342.97,299.2,342.97z"/>
    <g>
      <g>

        <path class="st1" d="M279.92,164.47c-13.76-13.84-27.54-27.67-41.3-41.51c-14.47-14.56-28.9-29.15-43.39-43.69
          c-9.56-9.6-25.03-9.62-34.63-0.1c-2.97,2.95-5.93,5.91-8.89,8.88c-6,6.03-12,12.06-18,18.09c-5.29,5.17-10.63,10.29-15.87,15.51
          c-10.92,10.89-21.81,21.81-32.68,32.76c-4.51,4.54-9.49,8.66-13.11,14.03c0,1.65,0,3.3,0,4.94c0.11,0.07,0.27,0.11,0.33,0.21
          c4.11,6.78,9.28,7.46,14.95,1.97c0.28-0.27,0.58-0.53,1.19-1.08c0,1.07,0,1.79,0,2.51c0,23.99,0.02,47.99-0.01,71.98
          c-0.01,12.95,5.61,22.76,16.48,29.59c2.84,1.79,6.04,2.84,9.33,3.6c0.75,0.17,1.65,0.04,2.22,0.79c8.38,0,16.75,0,25.13,0
          c5.08,0,10.16,0,15.24,0c5.26-2.21,6.6-4.25,6.6-10.03c0-17.77-0.03-35.53,0.01-53.3c0.02-8.08,6.38-14.46,14.3-14.51
          c8.02-0.04,14.48,6.34,14.5,14.5c0.04,17.7,0.11,35.4-0.04,53.09c-0.04,5.1,1.72,8.59,6.65,10.24c12.91,0,25.81,0,38.72,0
          c0.29-0.55,0.83-0.37,1.28-0.44c15.47-2.42,27.51-16.43,27.54-32.05c0.01-4.89-3.4-8.59-8.01-8.68c-4.75-0.1-8.29,3.44-8.45,8.45
          c-0.3,9.27-7.44,16.22-16.75,16.25c-7.48,0.03-14.96-0.04-22.44,0.04c-1.62,0.02-2.05-0.42-2.04-2.04
          c0.06-14.62,0.03-29.23,0.04-43.85c0-1.99-0.12-3.96-0.39-5.94c-1.88-13.9-14.73-25.54-28.8-26.03
          c-18.3-0.64-32.59,13.11-32.61,31.41c-0.01,13.72,0.01,27.45-0.02,41.17c0,1.69,0.76,3.86-0.38,4.92
          c-0.87,0.81-2.99,0.26-4.56,0.32c-0.14,0.01-0.27,0.04-0.41,0.06c-6.86-0.02-13.72,0.03-20.58-0.09
          c-8.72-0.14-16.01-7.32-16.03-16.04c-0.08-30.39-0.04-60.79-0.04-91.18c0-0.68-0.02-1.32,0.54-1.89
          c4.84-4.94,9.69-9.88,14.59-14.75c5-4.97,10.04-9.89,15-14.91c0.61-0.55,1.24-1.07,1.82-1.64
          c11.56-11.54,23.12-23.09,34.68-34.63c3.86-3.85,8.69-3.82,12.5,0.04c5.88,5.96,11.75,11.93,17.66,17.87
          c15.55,15.61,31.1,31.22,46.69,46.79c1.1,1.1,1.59,2.18,1.59,3.76c-0.06,16.13-0.03,32.26-0.07,48.39
          c-0.01,2.79,0.85,5.15,3.02,6.9c2.63,2.11,5.61,2.54,8.68,1.1c3.15-1.48,4.74-4.1,4.75-7.57c0.04-10.57,0.01-21.14,0.01-31.71
          c0-0.71,0-1.43,0-2.14c0.23-0.13,0.46-0.26,0.7-0.4c0.67,0.86,1.22,1.85,2.02,2.56c4.08,3.64,10.28,2.53,12.82-2.24
          C283.79,171.37,283.05,167.62,279.92,164.47z"/>
      </g>

      <path class="st1" d="M171.36,142.76c0-3.58-0.09-6.69,0.02-9.79c0.15-4.07,2.72-6.74,6.22-6.7c3.5,0.04,5.91,2.73,6.01,6.85
        c0.07,2.98,0.01,5.96,0.01,9.65c3.31,0,6.38-0.07,9.44,0.02c4.51,0.13,7.07,2.44,7.03,6.22c-0.03,3.83-2.47,5.9-7.16,6.03
        c-2.72,0.08-5.45,0.09-8.17,0.15c-0.24,0.01-0.47,0.23-1.14,0.58c0,2.87,0.07,5.97-0.02,9.07c-0.11,4.17-2.48,6.71-6.1,6.7
        c-3.57-0.01-6-2.6-6.14-6.74c-0.11-3.1-0.02-6.2-0.02-9.77c-3.54,0-6.65,0.08-9.75-0.02c-4.15-0.14-6.73-2.56-6.7-6.12
        c0.03-3.57,2.59-5.9,6.79-6.11c1.5-0.08,3-0.02,4.5-0.02C167.69,142.75,169.18,142.76,171.36,142.76z"/>
    </g>
  </g>
</svg>